<svg width="448" height="448" viewBox="0 0 448 448" fill="none" xmlns="http://www.w3.org/2000/svg">
<g clip-path="url(#clip0_317_2033)">
<path d="M448 0H0V448H448V0Z" fill="white"/>
<path d="M131.122 21.8538H120.195V32.7806H131.122V21.8538Z" fill="black"/>
<path d="M185.756 21.8538H174.829V32.7806H185.756V21.8538Z" fill="black"/>
<path d="M218.536 21.8538H207.609V32.7806H218.536V21.8538Z" fill="black"/>
<path d="M229.463 21.8538H218.536V32.7806H229.463V21.8538Z" fill="black"/>
<path d="M251.316 21.8538H240.39V32.7806H251.316V21.8538Z" fill="black"/>
<path d="M262.244 21.8538H251.317V32.7806H262.244V21.8538Z" fill="black"/>
<path d="M273.171 21.8538H262.244V32.7806H273.171V21.8538Z" fill="black"/>
<path d="M284.098 21.8538H273.171V32.7806H284.098V21.8538Z" fill="black"/>
<path d="M295.024 21.8538H284.098V32.7806H295.024V21.8538Z" fill="black"/>
<path d="M305.951 21.8538H295.024V32.7806H305.951V21.8538Z" fill="black"/>
<path d="M338.732 21.8538H327.805V32.7806H338.732V21.8538Z" fill="black"/>
<path d="M131.122 32.7805H120.195V43.7073H131.122V32.7805Z" fill="black"/>
<path d="M142.049 32.7805H131.122V43.7073H142.049V32.7805Z" fill="black"/>
<path d="M174.829 32.7805H163.902V43.7073H174.829V32.7805Z" fill="black"/>
<path d="M185.756 32.7805H174.829V43.7073H185.756V32.7805Z" fill="black"/>
<path d="M196.683 32.7805H185.756V43.7073H196.683V32.7805Z" fill="black"/>
<path d="M207.609 32.7805H196.683V43.7073H207.609V32.7805Z" fill="black"/>
<path d="M229.463 32.7805H218.536V43.7073H229.463V32.7805Z" fill="black"/>
<path d="M240.39 32.7805H229.463V43.7073H240.39V32.7805Z" fill="black"/>
<path d="M262.244 32.7805H251.317V43.7073H262.244V32.7805Z" fill="black"/>
<path d="M273.171 32.7805H262.244V43.7073H273.171V32.7805Z" fill="black"/>
<path d="M305.951 32.7805H295.024V43.7073H305.951V32.7805Z" fill="black"/>
<path d="M316.878 32.7805H305.951V43.7073H316.878V32.7805Z" fill="black"/>
<path d="M327.805 32.7805H316.878V43.7073H327.805V32.7805Z" fill="black"/>
<path d="M338.732 32.7805H327.805V43.7073H338.732V32.7805Z" fill="black"/>
<path d="M120.195 43.7075H109.269V54.6343H120.195V43.7075Z" fill="black"/>
<path d="M142.049 43.7075H131.122V54.6343H142.049V43.7075Z" fill="black"/>
<path d="M152.976 43.7075H142.049V54.6343H152.976V43.7075Z" fill="black"/>
<path d="M174.829 43.7075H163.902V54.6343H174.829V43.7075Z" fill="black"/>
<path d="M185.756 43.7075H174.829V54.6343H185.756V43.7075Z" fill="black"/>
<path d="M207.609 43.7075H196.683V54.6343H207.609V43.7075Z" fill="black"/>
<path d="M240.39 43.7075H229.463V54.6343H240.39V43.7075Z" fill="black"/>
<path d="M251.316 43.7075H240.39V54.6343H251.316V43.7075Z" fill="black"/>
<path d="M262.244 43.7075H251.317V54.6343H262.244V43.7075Z" fill="black"/>
<path d="M273.171 43.7075H262.244V54.6343H273.171V43.7075Z" fill="black"/>
<path d="M295.024 43.7075H284.098V54.6343H295.024V43.7075Z" fill="black"/>
<path d="M327.805 43.7075H316.878V54.6343H327.805V43.7075Z" fill="black"/>
<path d="M120.195 54.6343H109.269V65.5611H120.195V54.6343Z" fill="black"/>
<path d="M142.049 54.6343H131.122V65.5611H142.049V54.6343Z" fill="black"/>
<path d="M152.976 54.6343H142.049V65.5611H152.976V54.6343Z" fill="black"/>
<path d="M163.902 54.6343H152.976V65.5611H163.902V54.6343Z" fill="black"/>
<path d="M174.829 54.6343H163.902V65.5611H174.829V54.6343Z" fill="black"/>
<path d="M185.756 54.6343H174.829V65.5611H185.756V54.6343Z" fill="black"/>
<path d="M218.536 54.6343H207.609V65.5611H218.536V54.6343Z" fill="black"/>
<path d="M229.463 54.6343H218.536V65.5611H229.463V54.6343Z" fill="black"/>
<path d="M240.39 54.6343H229.463V65.5611H240.39V54.6343Z" fill="black"/>
<path d="M251.316 54.6343H240.39V65.5611H251.316V54.6343Z" fill="black"/>
<path d="M273.171 54.6343H262.244V65.5611H273.171V54.6343Z" fill="black"/>
<path d="M295.024 54.6343H284.098V65.5611H295.024V54.6343Z" fill="black"/>
<path d="M305.951 54.6343H295.024V65.5611H305.951V54.6343Z" fill="black"/>
<path d="M316.878 54.6343H305.951V65.5611H316.878V54.6343Z" fill="black"/>
<path d="M120.195 65.561H109.269V76.4879H120.195V65.561Z" fill="black"/>
<path d="M152.976 65.561H142.049V76.4879H152.976V65.561Z" fill="black"/>
<path d="M163.902 65.561H152.976V76.4879H163.902V65.561Z" fill="black"/>
<path d="M185.756 65.561H174.829V76.4879H185.756V65.561Z" fill="black"/>
<path d="M196.683 65.561H185.756V76.4879H196.683V65.561Z" fill="black"/>
<path d="M240.39 65.561H229.463V76.4879H240.39V65.561Z" fill="black"/>
<path d="M262.244 65.561H251.317V76.4879H262.244V65.561Z" fill="black"/>
<path d="M273.171 65.561H262.244V76.4879H273.171V65.561Z" fill="black"/>
<path d="M284.098 65.561H273.171V76.4879H284.098V65.561Z" fill="black"/>
<path d="M120.195 76.4878H109.269V87.4146H120.195V76.4878Z" fill="black"/>
<path d="M131.122 76.4878H120.195V87.4146H131.122V76.4878Z" fill="black"/>
<path d="M163.902 76.4878H152.976V87.4146H163.902V76.4878Z" fill="black"/>
<path d="M185.756 76.4878H174.829V87.4146H185.756V76.4878Z" fill="black"/>
<path d="M229.463 76.4878H218.536V87.4146H229.463V76.4878Z" fill="black"/>
<path d="M251.316 76.4878H240.39V87.4146H251.316V76.4878Z" fill="black"/>
<path d="M273.171 76.4878H262.244V87.4146H273.171V76.4878Z" fill="black"/>
<path d="M295.024 76.4878H284.098V87.4146H295.024V76.4878Z" fill="black"/>
<path d="M316.878 76.4878H305.951V87.4146H316.878V76.4878Z" fill="black"/>
<path d="M327.805 76.4878H316.878V87.4146H327.805V76.4878Z" fill="black"/>
<path d="M120.195 87.4148H109.269V98.3416H120.195V87.4148Z" fill="black"/>
<path d="M142.049 87.4148H131.122V98.3416H142.049V87.4148Z" fill="black"/>
<path d="M163.902 87.4148H152.976V98.3416H163.902V87.4148Z" fill="black"/>
<path d="M185.756 87.4148H174.829V98.3416H185.756V87.4148Z" fill="black"/>
<path d="M207.609 87.4148H196.683V98.3416H207.609V87.4148Z" fill="black"/>
<path d="M229.463 87.4148H218.536V98.3416H229.463V87.4148Z" fill="black"/>
<path d="M251.316 87.4148H240.39V98.3416H251.316V87.4148Z" fill="black"/>
<path d="M273.171 87.4148H262.244V98.3416H273.171V87.4148Z" fill="black"/>
<path d="M295.024 87.4148H284.098V98.3416H295.024V87.4148Z" fill="black"/>
<path d="M316.878 87.4148H305.951V98.3416H316.878V87.4148Z" fill="black"/>
<path d="M338.732 87.4148H327.805V98.3416H338.732V87.4148Z" fill="black"/>
<path d="M120.195 98.3416H109.269V109.268H120.195V98.3416Z" fill="black"/>
<path d="M142.049 98.3416H131.122V109.268H142.049V98.3416Z" fill="black"/>
<path d="M152.976 98.3416H142.049V109.268H152.976V98.3416Z" fill="black"/>
<path d="M163.902 98.3416H152.976V109.268H163.902V98.3416Z" fill="black"/>
<path d="M174.829 98.3416H163.902V109.268H174.829V98.3416Z" fill="black"/>
<path d="M185.756 98.3416H174.829V109.268H185.756V98.3416Z" fill="black"/>
<path d="M196.683 98.3416H185.756V109.268H196.683V98.3416Z" fill="black"/>
<path d="M251.316 98.3416H240.39V109.268H251.316V98.3416Z" fill="black"/>
<path d="M262.244 98.3416H251.317V109.268H262.244V98.3416Z" fill="black"/>
<path d="M284.098 98.3416H273.171V109.268H284.098V98.3416Z" fill="black"/>
<path d="M295.024 98.3416H284.098V109.268H295.024V98.3416Z" fill="black"/>
<path d="M316.878 98.3416H305.951V109.268H316.878V98.3416Z" fill="black"/>
<path d="M338.732 98.3416H327.805V109.268H338.732V98.3416Z" fill="black"/>
<path d="M32.7803 109.268H21.8535V120.195H32.7803V109.268Z" fill="black"/>
<path d="M54.6339 109.268H43.707V120.195H54.6339V109.268Z" fill="black"/>
<path d="M65.5606 109.268H54.6338V120.195H65.5606V109.268Z" fill="black"/>
<path d="M76.4874 109.268H65.5605V120.195H76.4874V109.268Z" fill="black"/>
<path d="M87.4141 109.268H76.4873V120.195H87.4141V109.268Z" fill="black"/>
<path d="M98.3409 109.268H87.4141V120.195H98.3409V109.268Z" fill="black"/>
<path d="M131.122 109.268H120.195V120.195H131.122V109.268Z" fill="black"/>
<path d="M163.902 109.268H152.976V120.195H163.902V109.268Z" fill="black"/>
<path d="M174.829 109.268H163.902V120.195H174.829V109.268Z" fill="black"/>
<path d="M185.756 109.268H174.829V120.195H185.756V109.268Z" fill="black"/>
<path d="M196.683 109.268H185.756V120.195H196.683V109.268Z" fill="black"/>
<path d="M229.463 109.268H218.536V120.195H229.463V109.268Z" fill="black"/>
<path d="M273.171 109.268H262.244V120.195H273.171V109.268Z" fill="black"/>
<path d="M305.951 109.268H295.024V120.195H305.951V109.268Z" fill="black"/>
<path d="M316.878 109.268H305.951V120.195H316.878V109.268Z" fill="black"/>
<path d="M338.732 109.268H327.805V120.195H338.732V109.268Z" fill="black"/>
<path d="M360.585 109.268H349.658V120.195H360.585V109.268Z" fill="black"/>
<path d="M371.512 109.268H360.585V120.195H371.512V109.268Z" fill="black"/>
<path d="M382.439 109.268H371.512V120.195H382.439V109.268Z" fill="black"/>
<path d="M393.365 109.268H382.438V120.195H393.365V109.268Z" fill="black"/>
<path d="M404.292 109.268H393.365V120.195H404.292V109.268Z" fill="black"/>
<path d="M54.6339 120.195H43.707V131.122H54.6339V120.195Z" fill="black"/>
<path d="M120.195 120.195H109.269V131.122H120.195V120.195Z" fill="black"/>
<path d="M131.122 120.195H120.195V131.122H131.122V120.195Z" fill="black"/>
<path d="M163.902 120.195H152.976V131.122H163.902V120.195Z" fill="black"/>
<path d="M185.756 120.195H174.829V131.122H185.756V120.195Z" fill="black"/>
<path d="M196.683 120.195H185.756V131.122H196.683V120.195Z" fill="black"/>
<path d="M207.609 120.195H196.683V131.122H207.609V120.195Z" fill="black"/>
<path d="M262.244 120.195H251.317V131.122H262.244V120.195Z" fill="black"/>
<path d="M284.098 120.195H273.171V131.122H284.098V120.195Z" fill="black"/>
<path d="M295.024 120.195H284.098V131.122H295.024V120.195Z" fill="black"/>
<path d="M349.658 120.195H338.731V131.122H349.658V120.195Z" fill="black"/>
<path d="M415.22 120.195H404.293V131.122H415.22V120.195Z" fill="black"/>
<path d="M32.7803 131.122H21.8535V142.049H32.7803V131.122Z" fill="black"/>
<path d="M43.7071 131.122H32.7803V142.049H43.7071V131.122Z" fill="black"/>
<path d="M54.6339 131.122H43.707V142.049H54.6339V131.122Z" fill="black"/>
<path d="M65.5606 131.122H54.6338V142.049H65.5606V131.122Z" fill="black"/>
<path d="M76.4874 131.122H65.5605V142.049H76.4874V131.122Z" fill="black"/>
<path d="M87.4141 131.122H76.4873V142.049H87.4141V131.122Z" fill="black"/>
<path d="M98.3409 131.122H87.4141V142.049H98.3409V131.122Z" fill="black"/>
<path d="M142.049 131.122H131.122V142.049H142.049V131.122Z" fill="black"/>
<path d="M174.829 131.122H163.902V142.049H174.829V131.122Z" fill="black"/>
<path d="M218.536 131.122H207.609V142.049H218.536V131.122Z" fill="black"/>
<path d="M229.463 131.122H218.536V142.049H229.463V131.122Z" fill="black"/>
<path d="M251.316 131.122H240.39V142.049H251.316V131.122Z" fill="black"/>
<path d="M295.024 131.122H284.098V142.049H295.024V131.122Z" fill="black"/>
<path d="M305.951 131.122H295.024V142.049H305.951V131.122Z" fill="black"/>
<path d="M327.805 131.122H316.878V142.049H327.805V131.122Z" fill="black"/>
<path d="M338.732 131.122H327.805V142.049H338.732V131.122Z" fill="black"/>
<path d="M360.585 131.122H349.658V142.049H360.585V131.122Z" fill="black"/>
<path d="M371.512 131.122H360.585V142.049H371.512V131.122Z" fill="black"/>
<path d="M393.365 131.122H382.438V142.049H393.365V131.122Z" fill="black"/>
<path d="M404.292 131.122H393.365V142.049H404.292V131.122Z" fill="black"/>
<path d="M415.22 131.122H404.293V142.049H415.22V131.122Z" fill="black"/>
<path d="M426.147 131.122H415.22V142.049H426.147V131.122Z" fill="black"/>
<path d="M43.7071 142.049H32.7803V152.976H43.7071V142.049Z" fill="black"/>
<path d="M76.4874 142.049H65.5605V152.976H76.4874V142.049Z" fill="black"/>
<path d="M120.195 142.049H109.269V152.976H120.195V142.049Z" fill="black"/>
<path d="M131.122 142.049H120.195V152.976H131.122V142.049Z" fill="black"/>
<path d="M142.049 142.049H131.122V152.976H142.049V142.049Z" fill="black"/>
<path d="M163.902 142.049H152.976V152.976H163.902V142.049Z" fill="black"/>
<path d="M207.609 142.049H196.683V152.976H207.609V142.049Z" fill="black"/>
<path d="M229.463 142.049H218.536V152.976H229.463V142.049Z" fill="black"/>
<path d="M251.316 142.049H240.39V152.976H251.316V142.049Z" fill="black"/>
<path d="M262.244 142.049H251.317V152.976H262.244V142.049Z" fill="black"/>
<path d="M273.171 142.049H262.244V152.976H273.171V142.049Z" fill="black"/>
<path d="M284.098 142.049H273.171V152.976H284.098V142.049Z" fill="black"/>
<path d="M316.878 142.049H305.951V152.976H316.878V142.049Z" fill="black"/>
<path d="M371.512 142.049H360.585V152.976H371.512V142.049Z" fill="black"/>
<path d="M426.147 142.049H415.22V152.976H426.147V142.049Z" fill="black"/>
<path d="M32.7803 152.976H21.8535V163.902H32.7803V152.976Z" fill="black"/>
<path d="M65.5606 152.976H54.6338V163.902H65.5606V152.976Z" fill="black"/>
<path d="M87.4141 152.976H76.4873V163.902H87.4141V152.976Z" fill="black"/>
<path d="M98.3409 152.976H87.4141V163.902H98.3409V152.976Z" fill="black"/>
<path d="M109.269 152.976H98.3418V163.902H109.269V152.976Z" fill="black"/>
<path d="M120.195 152.976H109.269V163.902H120.195V152.976Z" fill="black"/>
<path d="M142.049 152.976H131.122V163.902H142.049V152.976Z" fill="black"/>
<path d="M152.976 152.976H142.049V163.902H152.976V152.976Z" fill="black"/>
<path d="M163.902 152.976H152.976V163.902H163.902V152.976Z" fill="black"/>
<path d="M218.536 152.976H207.609V163.902H218.536V152.976Z" fill="black"/>
<path d="M229.463 152.976H218.536V163.902H229.463V152.976Z" fill="black"/>
<path d="M273.171 152.976H262.244V163.902H273.171V152.976Z" fill="black"/>
<path d="M305.951 152.976H295.024V163.902H305.951V152.976Z" fill="black"/>
<path d="M316.878 152.976H305.951V163.902H316.878V152.976Z" fill="black"/>
<path d="M327.805 152.976H316.878V163.902H327.805V152.976Z" fill="black"/>
<path d="M349.658 152.976H338.731V163.902H349.658V152.976Z" fill="black"/>
<path d="M360.585 152.976H349.658V163.902H360.585V152.976Z" fill="black"/>
<path d="M382.439 152.976H371.512V163.902H382.439V152.976Z" fill="black"/>
<path d="M393.365 152.976H382.438V163.902H393.365V152.976Z" fill="black"/>
<path d="M404.292 152.976H393.365V163.902H404.292V152.976Z" fill="black"/>
<path d="M415.22 152.976H404.293V163.902H415.22V152.976Z" fill="black"/>
<path d="M426.147 152.976H415.22V163.902H426.147V152.976Z" fill="black"/>
<path d="M43.7071 163.903H32.7803V174.829H43.7071V163.903Z" fill="black"/>
<path d="M54.6339 163.903H43.707V174.829H54.6339V163.903Z" fill="black"/>
<path d="M65.5606 163.903H54.6338V174.829H65.5606V163.903Z" fill="black"/>
<path d="M120.195 163.903H109.269V174.829H120.195V163.903Z" fill="black"/>
<path d="M174.829 163.903H163.902V174.829H174.829V163.903Z" fill="black"/>
<path d="M185.756 163.903H174.829V174.829H185.756V163.903Z" fill="black"/>
<path d="M207.609 163.903H196.683V174.829H207.609V163.903Z" fill="black"/>
<path d="M218.536 163.903H207.609V174.829H218.536V163.903Z" fill="black"/>
<path d="M240.39 163.903H229.463V174.829H240.39V163.903Z" fill="black"/>
<path d="M251.316 163.903H240.39V174.829H251.316V163.903Z" fill="black"/>
<path d="M262.244 163.903H251.317V174.829H262.244V163.903Z" fill="black"/>
<path d="M273.171 163.903H262.244V174.829H273.171V163.903Z" fill="black"/>
<path d="M284.098 163.903H273.171V174.829H284.098V163.903Z" fill="black"/>
<path d="M338.732 163.903H327.805V174.829H338.732V163.903Z" fill="black"/>
<path d="M349.658 163.903H338.731V174.829H349.658V163.903Z" fill="black"/>
<path d="M371.512 163.903H360.585V174.829H371.512V163.903Z" fill="black"/>
<path d="M415.22 163.903H404.293V174.829H415.22V163.903Z" fill="black"/>
<path d="M32.7803 174.829H21.8535V185.756H32.7803V174.829Z" fill="black"/>
<path d="M43.7071 174.829H32.7803V185.756H43.7071V174.829Z" fill="black"/>
<path d="M76.4874 174.829H65.5605V185.756H76.4874V174.829Z" fill="black"/>
<path d="M98.3409 174.829H87.4141V185.756H98.3409V174.829Z" fill="black"/>
<path d="M152.976 174.829H142.049V185.756H152.976V174.829Z" fill="black"/>
<path d="M174.829 174.829H163.902V185.756H174.829V174.829Z" fill="black"/>
<path d="M185.756 174.829H174.829V185.756H185.756V174.829Z" fill="black"/>
<path d="M196.683 174.829H185.756V185.756H196.683V174.829Z" fill="black"/>
<path d="M218.536 174.829H207.609V185.756H218.536V174.829Z" fill="black"/>
<path d="M295.024 174.829H284.098V185.756H295.024V174.829Z" fill="black"/>
<path d="M305.951 174.829H295.024V185.756H305.951V174.829Z" fill="black"/>
<path d="M327.805 174.829H316.878V185.756H327.805V174.829Z" fill="black"/>
<path d="M338.732 174.829H327.805V185.756H338.732V174.829Z" fill="black"/>
<path d="M349.658 174.829H338.731V185.756H349.658V174.829Z" fill="black"/>
<path d="M360.585 174.829H349.658V185.756H360.585V174.829Z" fill="black"/>
<path d="M371.512 174.829H360.585V185.756H371.512V174.829Z" fill="black"/>
<path d="M382.439 174.829H371.512V185.756H382.439V174.829Z" fill="black"/>
<path d="M393.365 174.829H382.438V185.756H393.365V174.829Z" fill="black"/>
<path d="M426.147 174.829H415.22V185.756H426.147V174.829Z" fill="black"/>
<path d="M32.7803 185.756H21.8535V196.683H32.7803V185.756Z" fill="black"/>
<path d="M54.6339 185.756H43.707V196.683H54.6339V185.756Z" fill="black"/>
<path d="M142.049 185.756H131.122V196.683H142.049V185.756Z" fill="black"/>
<path d="M152.976 185.756H142.049V196.683H152.976V185.756Z" fill="black"/>
<path d="M163.902 185.756H152.976V196.683H163.902V185.756Z" fill="black"/>
<path d="M207.609 185.756H196.683V196.683H207.609V185.756Z" fill="black"/>
<path d="M218.536 185.756H207.609V196.683H218.536V185.756Z" fill="black"/>
<path d="M229.463 185.756H218.536V196.683H229.463V185.756Z" fill="black"/>
<path d="M240.39 185.756H229.463V196.683H240.39V185.756Z" fill="black"/>
<path d="M251.316 185.756H240.39V196.683H251.316V185.756Z" fill="black"/>
<path d="M262.244 185.756H251.317V196.683H262.244V185.756Z" fill="black"/>
<path d="M316.878 185.756H305.951V196.683H316.878V185.756Z" fill="black"/>
<path d="M327.805 185.756H316.878V196.683H327.805V185.756Z" fill="black"/>
<path d="M371.512 185.756H360.585V196.683H371.512V185.756Z" fill="black"/>
<path d="M382.439 185.756H371.512V196.683H382.439V185.756Z" fill="black"/>
<path d="M415.22 185.756H404.293V196.683H415.22V185.756Z" fill="black"/>
<path d="M32.7803 196.683H21.8535V207.61H32.7803V196.683Z" fill="black"/>
<path d="M43.7071 196.683H32.7803V207.61H43.7071V196.683Z" fill="black"/>
<path d="M54.6339 196.683H43.707V207.61H54.6339V196.683Z" fill="black"/>
<path d="M65.5606 196.683H54.6338V207.61H65.5606V196.683Z" fill="black"/>
<path d="M76.4874 196.683H65.5605V207.61H76.4874V196.683Z" fill="black"/>
<path d="M87.4141 196.683H76.4873V207.61H87.4141V196.683Z" fill="black"/>
<path d="M98.3409 196.683H87.4141V207.61H98.3409V196.683Z" fill="black"/>
<path d="M120.195 196.683H109.269V207.61H120.195V196.683Z" fill="black"/>
<path d="M131.122 196.683H120.195V207.61H131.122V196.683Z" fill="black"/>
<path d="M142.049 196.683H131.122V207.61H142.049V196.683Z" fill="black"/>
<path d="M152.976 196.683H142.049V207.61H152.976V196.683Z" fill="black"/>
<path d="M163.902 196.683H152.976V207.61H163.902V196.683Z" fill="black"/>
<path d="M196.683 196.683H185.756V207.61H196.683V196.683Z" fill="black"/>
<path d="M207.609 196.683H196.683V207.61H207.609V196.683Z" fill="black"/>
<path d="M295.024 196.683H284.098V207.61H295.024V196.683Z" fill="black"/>
<path d="M305.951 196.683H295.024V207.61H305.951V196.683Z" fill="black"/>
<path d="M327.805 196.683H316.878V207.61H327.805V196.683Z" fill="black"/>
<path d="M360.585 196.683H349.658V207.61H360.585V196.683Z" fill="black"/>
<path d="M382.439 196.683H371.512V207.61H382.439V196.683Z" fill="black"/>
<path d="M404.292 196.683H393.365V207.61H404.292V196.683Z" fill="black"/>
<path d="M426.147 196.683H415.22V207.61H426.147V196.683Z" fill="black"/>
<path d="M43.7071 207.61H32.7803V218.537H43.7071V207.61Z" fill="black"/>
<path d="M54.6339 207.61H43.707V218.537H54.6339V207.61Z" fill="black"/>
<path d="M65.5606 207.61H54.6338V218.537H65.5606V207.61Z" fill="black"/>
<path d="M87.4141 207.61H76.4873V218.537H87.4141V207.61Z" fill="black"/>
<path d="M109.269 207.61H98.3418V218.537H109.269V207.61Z" fill="black"/>
<path d="M120.195 207.61H109.269V218.537H120.195V207.61Z" fill="black"/>
<path d="M131.122 207.61H120.195V218.537H131.122V207.61Z" fill="black"/>
<path d="M142.049 207.61H131.122V218.537H142.049V207.61Z" fill="black"/>
<path d="M152.976 207.61H142.049V218.537H152.976V207.61Z" fill="black"/>
<path d="M163.902 207.61H152.976V218.537H163.902V207.61Z" fill="black"/>
<path d="M196.683 207.61H185.756V218.537H196.683V207.61Z" fill="black"/>
<path d="M218.536 207.61H207.609V218.537H218.536V207.61Z" fill="black"/>
<path d="M229.463 207.61H218.536V218.537H229.463V207.61Z" fill="black"/>
<path d="M240.39 207.61H229.463V218.537H240.39V207.61Z" fill="black"/>
<path d="M251.316 207.61H240.39V218.537H251.316V207.61Z" fill="black"/>
<path d="M262.244 207.61H251.317V218.537H262.244V207.61Z" fill="black"/>
<path d="M273.171 207.61H262.244V218.537H273.171V207.61Z" fill="black"/>
<path d="M284.098 207.61H273.171V218.537H284.098V207.61Z" fill="black"/>
<path d="M305.951 207.61H295.024V218.537H305.951V207.61Z" fill="black"/>
<path d="M316.878 207.61H305.951V218.537H316.878V207.61Z" fill="black"/>
<path d="M338.732 207.61H327.805V218.537H338.732V207.61Z" fill="black"/>
<path d="M349.658 207.61H338.731V218.537H349.658V207.61Z" fill="black"/>
<path d="M371.512 207.61H360.585V218.537H371.512V207.61Z" fill="black"/>
<path d="M415.22 207.61H404.293V218.537H415.22V207.61Z" fill="black"/>
<path d="M76.4874 218.537H65.5605V229.463H76.4874V218.537Z" fill="black"/>
<path d="M87.4141 218.537H76.4873V229.463H87.4141V218.537Z" fill="black"/>
<path d="M98.3409 218.537H87.4141V229.463H98.3409V218.537Z" fill="black"/>
<path d="M142.049 218.537H131.122V229.463H142.049V218.537Z" fill="black"/>
<path d="M152.976 218.537H142.049V229.463H152.976V218.537Z" fill="black"/>
<path d="M174.829 218.537H163.902V229.463H174.829V218.537Z" fill="black"/>
<path d="M196.683 218.537H185.756V229.463H196.683V218.537Z" fill="black"/>
<path d="M207.609 218.537H196.683V229.463H207.609V218.537Z" fill="black"/>
<path d="M229.463 218.537H218.536V229.463H229.463V218.537Z" fill="black"/>
<path d="M305.951 218.537H295.024V229.463H305.951V218.537Z" fill="black"/>
<path d="M316.878 218.537H305.951V229.463H316.878V218.537Z" fill="black"/>
<path d="M327.805 218.537H316.878V229.463H327.805V218.537Z" fill="black"/>
<path d="M360.585 218.537H349.658V229.463H360.585V218.537Z" fill="black"/>
<path d="M393.365 218.537H382.438V229.463H393.365V218.537Z" fill="black"/>
<path d="M415.22 218.537H404.293V229.463H415.22V218.537Z" fill="black"/>
<path d="M426.147 218.537H415.22V229.463H426.147V218.537Z" fill="black"/>
<path d="M76.4874 229.464H65.5605V240.39H76.4874V229.464Z" fill="black"/>
<path d="M87.4141 229.464H76.4873V240.39H87.4141V229.464Z" fill="black"/>
<path d="M120.195 229.464H109.269V240.39H120.195V229.464Z" fill="black"/>
<path d="M131.122 229.464H120.195V240.39H131.122V229.464Z" fill="black"/>
<path d="M152.976 229.464H142.049V240.39H152.976V229.464Z" fill="black"/>
<path d="M185.756 229.464H174.829V240.39H185.756V229.464Z" fill="black"/>
<path d="M196.683 229.464H185.756V240.39H196.683V229.464Z" fill="black"/>
<path d="M229.463 229.464H218.536V240.39H229.463V229.464Z" fill="black"/>
<path d="M251.316 229.464H240.39V240.39H251.316V229.464Z" fill="black"/>
<path d="M262.244 229.464H251.317V240.39H262.244V229.464Z" fill="black"/>
<path d="M273.171 229.464H262.244V240.39H273.171V229.464Z" fill="black"/>
<path d="M316.878 229.464H305.951V240.39H316.878V229.464Z" fill="black"/>
<path d="M327.805 229.464H316.878V240.39H327.805V229.464Z" fill="black"/>
<path d="M349.658 229.464H338.731V240.39H349.658V229.464Z" fill="black"/>
<path d="M382.439 229.464H371.512V240.39H382.439V229.464Z" fill="black"/>
<path d="M393.365 229.464H382.438V240.39H393.365V229.464Z" fill="black"/>
<path d="M426.147 229.464H415.22V240.39H426.147V229.464Z" fill="black"/>
<path d="M32.7803 240.39H21.8535V251.317H32.7803V240.39Z" fill="black"/>
<path d="M87.4141 240.39H76.4873V251.317H87.4141V240.39Z" fill="black"/>
<path d="M98.3409 240.39H87.4141V251.317H98.3409V240.39Z" fill="black"/>
<path d="M109.269 240.39H98.3418V251.317H109.269V240.39Z" fill="black"/>
<path d="M120.195 240.39H109.269V251.317H120.195V240.39Z" fill="black"/>
<path d="M163.902 240.39H152.976V251.317H163.902V240.39Z" fill="black"/>
<path d="M185.756 240.39H174.829V251.317H185.756V240.39Z" fill="black"/>
<path d="M196.683 240.39H185.756V251.317H196.683V240.39Z" fill="black"/>
<path d="M218.536 240.39H207.609V251.317H218.536V240.39Z" fill="black"/>
<path d="M229.463 240.39H218.536V251.317H229.463V240.39Z" fill="black"/>
<path d="M295.024 240.39H284.098V251.317H295.024V240.39Z" fill="black"/>
<path d="M305.951 240.39H295.024V251.317H305.951V240.39Z" fill="black"/>
<path d="M316.878 240.39H305.951V251.317H316.878V240.39Z" fill="black"/>
<path d="M349.658 240.39H338.731V251.317H349.658V240.39Z" fill="black"/>
<path d="M360.585 240.39H349.658V251.317H360.585V240.39Z" fill="black"/>
<path d="M382.439 240.39H371.512V251.317H382.439V240.39Z" fill="black"/>
<path d="M404.292 240.39H393.365V251.317H404.292V240.39Z" fill="black"/>
<path d="M54.6339 251.317H43.707V262.244H54.6339V251.317Z" fill="black"/>
<path d="M109.269 251.317H98.3418V262.244H109.269V251.317Z" fill="black"/>
<path d="M131.122 251.317H120.195V262.244H131.122V251.317Z" fill="black"/>
<path d="M185.756 251.317H174.829V262.244H185.756V251.317Z" fill="black"/>
<path d="M207.609 251.317H196.683V262.244H207.609V251.317Z" fill="black"/>
<path d="M240.39 251.317H229.463V262.244H240.39V251.317Z" fill="black"/>
<path d="M251.316 251.317H240.39V262.244H251.316V251.317Z" fill="black"/>
<path d="M262.244 251.317H251.317V262.244H262.244V251.317Z" fill="black"/>
<path d="M284.098 251.317H273.171V262.244H284.098V251.317Z" fill="black"/>
<path d="M338.732 251.317H327.805V262.244H338.732V251.317Z" fill="black"/>
<path d="M393.365 251.317H382.438V262.244H393.365V251.317Z" fill="black"/>
<path d="M32.7803 262.244H21.8535V273.171H32.7803V262.244Z" fill="black"/>
<path d="M43.7071 262.244H32.7803V273.171H43.7071V262.244Z" fill="black"/>
<path d="M98.3409 262.244H87.4141V273.171H98.3409V262.244Z" fill="black"/>
<path d="M109.269 262.244H98.3418V273.171H109.269V262.244Z" fill="black"/>
<path d="M131.122 262.244H120.195V273.171H131.122V262.244Z" fill="black"/>
<path d="M142.049 262.244H131.122V273.171H142.049V262.244Z" fill="black"/>
<path d="M185.756 262.244H174.829V273.171H185.756V262.244Z" fill="black"/>
<path d="M196.683 262.244H185.756V273.171H196.683V262.244Z" fill="black"/>
<path d="M229.463 262.244H218.536V273.171H229.463V262.244Z" fill="black"/>
<path d="M262.244 262.244H251.317V273.171H262.244V262.244Z" fill="black"/>
<path d="M295.024 262.244H284.098V273.171H295.024V262.244Z" fill="black"/>
<path d="M305.951 262.244H295.024V273.171H305.951V262.244Z" fill="black"/>
<path d="M327.805 262.244H316.878V273.171H327.805V262.244Z" fill="black"/>
<path d="M338.732 262.244H327.805V273.171H338.732V262.244Z" fill="black"/>
<path d="M360.585 262.244H349.658V273.171H360.585V262.244Z" fill="black"/>
<path d="M371.512 262.244H360.585V273.171H371.512V262.244Z" fill="black"/>
<path d="M382.439 262.244H371.512V273.171H382.439V262.244Z" fill="black"/>
<path d="M393.365 262.244H382.438V273.171H393.365V262.244Z" fill="black"/>
<path d="M415.22 262.244H404.293V273.171H415.22V262.244Z" fill="black"/>
<path d="M426.147 262.244H415.22V273.171H426.147V262.244Z" fill="black"/>
<path d="M32.7803 273.171H21.8535V284.098H32.7803V273.171Z" fill="black"/>
<path d="M43.7071 273.171H32.7803V284.098H43.7071V273.171Z" fill="black"/>
<path d="M54.6339 273.171H43.707V284.098H54.6339V273.171Z" fill="black"/>
<path d="M87.4141 273.171H76.4873V284.098H87.4141V273.171Z" fill="black"/>
<path d="M109.269 273.171H98.3418V284.098H109.269V273.171Z" fill="black"/>
<path d="M120.195 273.171H109.269V284.098H120.195V273.171Z" fill="black"/>
<path d="M142.049 273.171H131.122V284.098H142.049V273.171Z" fill="black"/>
<path d="M152.976 273.171H142.049V284.098H152.976V273.171Z" fill="black"/>
<path d="M163.902 273.171H152.976V284.098H163.902V273.171Z" fill="black"/>
<path d="M174.829 273.171H163.902V284.098H174.829V273.171Z" fill="black"/>
<path d="M240.39 273.171H229.463V284.098H240.39V273.171Z" fill="black"/>
<path d="M251.316 273.171H240.39V284.098H251.316V273.171Z" fill="black"/>
<path d="M262.244 273.171H251.317V284.098H262.244V273.171Z" fill="black"/>
<path d="M316.878 273.171H305.951V284.098H316.878V273.171Z" fill="black"/>
<path d="M360.585 273.171H349.658V284.098H360.585V273.171Z" fill="black"/>
<path d="M371.512 273.171H360.585V284.098H371.512V273.171Z" fill="black"/>
<path d="M382.439 273.171H371.512V284.098H382.439V273.171Z" fill="black"/>
<path d="M415.22 273.171H404.293V284.098H415.22V273.171Z" fill="black"/>
<path d="M426.147 273.171H415.22V284.098H426.147V273.171Z" fill="black"/>
<path d="M32.7803 284.098H21.8535V295.024H32.7803V284.098Z" fill="black"/>
<path d="M43.7071 284.098H32.7803V295.024H43.7071V284.098Z" fill="black"/>
<path d="M65.5606 284.098H54.6338V295.024H65.5606V284.098Z" fill="black"/>
<path d="M98.3409 284.098H87.4141V295.024H98.3409V284.098Z" fill="black"/>
<path d="M109.269 284.098H98.3418V295.024H109.269V284.098Z" fill="black"/>
<path d="M120.195 284.098H109.269V295.024H120.195V284.098Z" fill="black"/>
<path d="M131.122 284.098H120.195V295.024H131.122V284.098Z" fill="black"/>
<path d="M174.829 284.098H163.902V295.024H174.829V284.098Z" fill="black"/>
<path d="M196.683 284.098H185.756V295.024H196.683V284.098Z" fill="black"/>
<path d="M229.463 284.098H218.536V295.024H229.463V284.098Z" fill="black"/>
<path d="M295.024 284.098H284.098V295.024H295.024V284.098Z" fill="black"/>
<path d="M305.951 284.098H295.024V295.024H305.951V284.098Z" fill="black"/>
<path d="M316.878 284.098H305.951V295.024H316.878V284.098Z" fill="black"/>
<path d="M327.805 284.098H316.878V295.024H327.805V284.098Z" fill="black"/>
<path d="M338.732 284.098H327.805V295.024H338.732V284.098Z" fill="black"/>
<path d="M349.658 284.098H338.731V295.024H349.658V284.098Z" fill="black"/>
<path d="M360.585 284.098H349.658V295.024H360.585V284.098Z" fill="black"/>
<path d="M371.512 284.098H360.585V295.024H371.512V284.098Z" fill="black"/>
<path d="M382.439 284.098H371.512V295.024H382.439V284.098Z" fill="black"/>
<path d="M404.292 284.098H393.365V295.024H404.292V284.098Z" fill="black"/>
<path d="M426.147 284.098H415.22V295.024H426.147V284.098Z" fill="black"/>
<path d="M32.7803 295.024H21.8535V305.951H32.7803V295.024Z" fill="black"/>
<path d="M43.7071 295.024H32.7803V305.951H43.7071V295.024Z" fill="black"/>
<path d="M87.4141 295.024H76.4873V305.951H87.4141V295.024Z" fill="black"/>
<path d="M142.049 295.024H131.122V305.951H142.049V295.024Z" fill="black"/>
<path d="M163.902 295.024H152.976V305.951H163.902V295.024Z" fill="black"/>
<path d="M196.683 295.024H185.756V305.951H196.683V295.024Z" fill="black"/>
<path d="M207.609 295.024H196.683V305.951H207.609V295.024Z" fill="black"/>
<path d="M218.536 295.024H207.609V305.951H218.536V295.024Z" fill="black"/>
<path d="M240.39 295.024H229.463V305.951H240.39V295.024Z" fill="black"/>
<path d="M251.316 295.024H240.39V305.951H251.316V295.024Z" fill="black"/>
<path d="M284.098 295.024H273.171V305.951H284.098V295.024Z" fill="black"/>
<path d="M305.951 295.024H295.024V305.951H305.951V295.024Z" fill="black"/>
<path d="M393.365 295.024H382.438V305.951H393.365V295.024Z" fill="black"/>
<path d="M32.7803 305.951H21.8535V316.878H32.7803V305.951Z" fill="black"/>
<path d="M98.3409 305.951H87.4141V316.878H98.3409V305.951Z" fill="black"/>
<path d="M142.049 305.951H131.122V316.878H142.049V305.951Z" fill="black"/>
<path d="M174.829 305.951H163.902V316.878H174.829V305.951Z" fill="black"/>
<path d="M229.463 305.951H218.536V316.878H229.463V305.951Z" fill="black"/>
<path d="M251.316 305.951H240.39V316.878H251.316V305.951Z" fill="black"/>
<path d="M273.171 305.951H262.244V316.878H273.171V305.951Z" fill="black"/>
<path d="M295.024 305.951H284.098V316.878H295.024V305.951Z" fill="black"/>
<path d="M316.878 305.951H305.951V316.878H316.878V305.951Z" fill="black"/>
<path d="M327.805 305.951H316.878V316.878H327.805V305.951Z" fill="black"/>
<path d="M360.585 305.951H349.658V316.878H360.585V305.951Z" fill="black"/>
<path d="M371.512 305.951H360.585V316.878H371.512V305.951Z" fill="black"/>
<path d="M393.365 305.951H382.438V316.878H393.365V305.951Z" fill="black"/>
<path d="M404.292 305.951H393.365V316.878H404.292V305.951Z" fill="black"/>
<path d="M415.22 305.951H404.293V316.878H415.22V305.951Z" fill="black"/>
<path d="M426.147 305.951H415.22V316.878H426.147V305.951Z" fill="black"/>
<path d="M32.7803 316.878H21.8535V327.805H32.7803V316.878Z" fill="black"/>
<path d="M65.5606 316.878H54.6338V327.805H65.5606V316.878Z" fill="black"/>
<path d="M109.269 316.878H98.3418V327.805H109.269V316.878Z" fill="black"/>
<path d="M120.195 316.878H109.269V327.805H120.195V316.878Z" fill="black"/>
<path d="M131.122 316.878H120.195V327.805H131.122V316.878Z" fill="black"/>
<path d="M142.049 316.878H131.122V327.805H142.049V316.878Z" fill="black"/>
<path d="M185.756 316.878H174.829V327.805H185.756V316.878Z" fill="black"/>
<path d="M207.609 316.878H196.683V327.805H207.609V316.878Z" fill="black"/>
<path d="M240.39 316.878H229.463V327.805H240.39V316.878Z" fill="black"/>
<path d="M251.316 316.878H240.39V327.805H251.316V316.878Z" fill="black"/>
<path d="M262.244 316.878H251.317V327.805H262.244V316.878Z" fill="black"/>
<path d="M273.171 316.878H262.244V327.805H273.171V316.878Z" fill="black"/>
<path d="M284.098 316.878H273.171V327.805H284.098V316.878Z" fill="black"/>
<path d="M295.024 316.878H284.098V327.805H295.024V316.878Z" fill="black"/>
<path d="M316.878 316.878H305.951V327.805H316.878V316.878Z" fill="black"/>
<path d="M349.658 316.878H338.731V327.805H349.658V316.878Z" fill="black"/>
<path d="M371.512 316.878H360.585V327.805H371.512V316.878Z" fill="black"/>
<path d="M415.22 316.878H404.293V327.805H415.22V316.878Z" fill="black"/>
<path d="M32.7803 327.805H21.8535V338.732H32.7803V327.805Z" fill="black"/>
<path d="M65.5606 327.805H54.6338V338.732H65.5606V327.805Z" fill="black"/>
<path d="M76.4874 327.805H65.5605V338.732H76.4874V327.805Z" fill="black"/>
<path d="M98.3409 327.805H87.4141V338.732H98.3409V327.805Z" fill="black"/>
<path d="M109.269 327.805H98.3418V338.732H109.269V327.805Z" fill="black"/>
<path d="M142.049 327.805H131.122V338.732H142.049V327.805Z" fill="black"/>
<path d="M152.976 327.805H142.049V338.732H152.976V327.805Z" fill="black"/>
<path d="M163.902 327.805H152.976V338.732H163.902V327.805Z" fill="black"/>
<path d="M174.829 327.805H163.902V338.732H174.829V327.805Z" fill="black"/>
<path d="M185.756 327.805H174.829V338.732H185.756V327.805Z" fill="black"/>
<path d="M218.536 327.805H207.609V338.732H218.536V327.805Z" fill="black"/>
<path d="M229.463 327.805H218.536V338.732H229.463V327.805Z" fill="black"/>
<path d="M240.39 327.805H229.463V338.732H240.39V327.805Z" fill="black"/>
<path d="M251.316 327.805H240.39V338.732H251.316V327.805Z" fill="black"/>
<path d="M295.024 327.805H284.098V338.732H295.024V327.805Z" fill="black"/>
<path d="M305.951 327.805H295.024V338.732H305.951V327.805Z" fill="black"/>
<path d="M327.805 327.805H316.878V338.732H327.805V327.805Z" fill="black"/>
<path d="M338.732 327.805H327.805V338.732H338.732V327.805Z" fill="black"/>
<path d="M349.658 327.805H338.731V338.732H349.658V327.805Z" fill="black"/>
<path d="M360.585 327.805H349.658V338.732H360.585V327.805Z" fill="black"/>
<path d="M371.512 327.805H360.585V338.732H371.512V327.805Z" fill="black"/>
<path d="M382.439 327.805H371.512V338.732H382.439V327.805Z" fill="black"/>
<path d="M393.365 327.805H382.438V338.732H393.365V327.805Z" fill="black"/>
<path d="M404.292 327.805H393.365V338.732H404.292V327.805Z" fill="black"/>
<path d="M120.195 338.732H109.269V349.659H120.195V338.732Z" fill="black"/>
<path d="M131.122 338.732H120.195V349.659H131.122V338.732Z" fill="black"/>
<path d="M142.049 338.732H131.122V349.659H142.049V338.732Z" fill="black"/>
<path d="M152.976 338.732H142.049V349.659H152.976V338.732Z" fill="black"/>
<path d="M163.902 338.732H152.976V349.659H163.902V338.732Z" fill="black"/>
<path d="M174.829 338.732H163.902V349.659H174.829V338.732Z" fill="black"/>
<path d="M207.609 338.732H196.683V349.659H207.609V338.732Z" fill="black"/>
<path d="M218.536 338.732H207.609V349.659H218.536V338.732Z" fill="black"/>
<path d="M240.39 338.732H229.463V349.659H240.39V338.732Z" fill="black"/>
<path d="M262.244 338.732H251.317V349.659H262.244V338.732Z" fill="black"/>
<path d="M273.171 338.732H262.244V349.659H273.171V338.732Z" fill="black"/>
<path d="M284.098 338.732H273.171V349.659H284.098V338.732Z" fill="black"/>
<path d="M327.805 338.732H316.878V349.659H327.805V338.732Z" fill="black"/>
<path d="M338.732 338.732H327.805V349.659H338.732V338.732Z" fill="black"/>
<path d="M382.439 338.732H371.512V349.659H382.439V338.732Z" fill="black"/>
<path d="M393.365 338.732H382.438V349.659H393.365V338.732Z" fill="black"/>
<path d="M415.22 338.732H404.293V349.659H415.22V338.732Z" fill="black"/>
<path d="M163.902 349.659H152.976V360.586H163.902V349.659Z" fill="black"/>
<path d="M196.683 349.659H185.756V360.586H196.683V349.659Z" fill="black"/>
<path d="M207.609 349.659H196.683V360.586H207.609V349.659Z" fill="black"/>
<path d="M218.536 349.659H207.609V360.586H218.536V349.659Z" fill="black"/>
<path d="M316.878 349.659H305.951V360.586H316.878V349.659Z" fill="black"/>
<path d="M338.732 349.659H327.805V360.586H338.732V349.659Z" fill="black"/>
<path d="M360.585 349.659H349.658V360.586H360.585V349.659Z" fill="black"/>
<path d="M382.439 349.659H371.512V360.586H382.439V349.659Z" fill="black"/>
<path d="M404.292 349.659H393.365V360.586H404.292V349.659Z" fill="black"/>
<path d="M426.147 349.659H415.22V360.586H426.147V349.659Z" fill="black"/>
<path d="M120.195 360.585H109.269V371.512H120.195V360.585Z" fill="black"/>
<path d="M185.756 360.585H174.829V371.512H185.756V360.585Z" fill="black"/>
<path d="M196.683 360.585H185.756V371.512H196.683V360.585Z" fill="black"/>
<path d="M218.536 360.585H207.609V371.512H218.536V360.585Z" fill="black"/>
<path d="M229.463 360.585H218.536V371.512H229.463V360.585Z" fill="black"/>
<path d="M262.244 360.585H251.317V371.512H262.244V360.585Z" fill="black"/>
<path d="M273.171 360.585H262.244V371.512H273.171V360.585Z" fill="black"/>
<path d="M295.024 360.585H284.098V371.512H295.024V360.585Z" fill="black"/>
<path d="M316.878 360.585H305.951V371.512H316.878V360.585Z" fill="black"/>
<path d="M338.732 360.585H327.805V371.512H338.732V360.585Z" fill="black"/>
<path d="M382.439 360.585H371.512V371.512H382.439V360.585Z" fill="black"/>
<path d="M393.365 360.585H382.438V371.512H393.365V360.585Z" fill="black"/>
<path d="M415.22 360.585H404.293V371.512H415.22V360.585Z" fill="black"/>
<path d="M120.195 371.512H109.269V382.439H120.195V371.512Z" fill="black"/>
<path d="M131.122 371.512H120.195V382.439H131.122V371.512Z" fill="black"/>
<path d="M163.902 371.512H152.976V382.439H163.902V371.512Z" fill="black"/>
<path d="M196.683 371.512H185.756V382.439H196.683V371.512Z" fill="black"/>
<path d="M207.609 371.512H196.683V382.439H207.609V371.512Z" fill="black"/>
<path d="M240.39 371.512H229.463V382.439H240.39V371.512Z" fill="black"/>
<path d="M273.171 371.512H262.244V382.439H273.171V371.512Z" fill="black"/>
<path d="M305.951 371.512H295.024V382.439H305.951V371.512Z" fill="black"/>
<path d="M327.805 371.512H316.878V382.439H327.805V371.512Z" fill="black"/>
<path d="M338.732 371.512H327.805V382.439H338.732V371.512Z" fill="black"/>
<path d="M349.658 371.512H338.731V382.439H349.658V371.512Z" fill="black"/>
<path d="M360.585 371.512H349.658V382.439H360.585V371.512Z" fill="black"/>
<path d="M371.512 371.512H360.585V382.439H371.512V371.512Z" fill="black"/>
<path d="M382.439 371.512H371.512V382.439H382.439V371.512Z" fill="black"/>
<path d="M404.292 371.512H393.365V382.439H404.292V371.512Z" fill="black"/>
<path d="M426.147 371.512H415.22V382.439H426.147V371.512Z" fill="black"/>
<path d="M120.195 382.439H109.269V393.366H120.195V382.439Z" fill="black"/>
<path d="M142.049 382.439H131.122V393.366H142.049V382.439Z" fill="black"/>
<path d="M152.976 382.439H142.049V393.366H152.976V382.439Z" fill="black"/>
<path d="M163.902 382.439H152.976V393.366H163.902V382.439Z" fill="black"/>
<path d="M185.756 382.439H174.829V393.366H185.756V382.439Z" fill="black"/>
<path d="M196.683 382.439H185.756V393.366H196.683V382.439Z" fill="black"/>
<path d="M229.463 382.439H218.536V393.366H229.463V382.439Z" fill="black"/>
<path d="M240.39 382.439H229.463V393.366H240.39V382.439Z" fill="black"/>
<path d="M251.316 382.439H240.39V393.366H251.316V382.439Z" fill="black"/>
<path d="M262.244 382.439H251.317V393.366H262.244V382.439Z" fill="black"/>
<path d="M284.098 382.439H273.171V393.366H284.098V382.439Z" fill="black"/>
<path d="M295.024 382.439H284.098V393.366H295.024V382.439Z" fill="black"/>
<path d="M305.951 382.439H295.024V393.366H305.951V382.439Z" fill="black"/>
<path d="M316.878 382.439H305.951V393.366H316.878V382.439Z" fill="black"/>
<path d="M338.732 382.439H327.805V393.366H338.732V382.439Z" fill="black"/>
<path d="M349.658 382.439H338.731V393.366H349.658V382.439Z" fill="black"/>
<path d="M360.585 382.439H349.658V393.366H360.585V382.439Z" fill="black"/>
<path d="M382.439 382.439H371.512V393.366H382.439V382.439Z" fill="black"/>
<path d="M426.147 382.439H415.22V393.366H426.147V382.439Z" fill="black"/>
<path d="M120.195 393.366H109.269V404.293H120.195V393.366Z" fill="black"/>
<path d="M152.976 393.366H142.049V404.293H152.976V393.366Z" fill="black"/>
<path d="M163.902 393.366H152.976V404.293H163.902V393.366Z" fill="black"/>
<path d="M185.756 393.366H174.829V404.293H185.756V393.366Z" fill="black"/>
<path d="M196.683 393.366H185.756V404.293H196.683V393.366Z" fill="black"/>
<path d="M207.609 393.366H196.683V404.293H207.609V393.366Z" fill="black"/>
<path d="M218.536 393.366H207.609V404.293H218.536V393.366Z" fill="black"/>
<path d="M251.316 393.366H240.39V404.293H251.316V393.366Z" fill="black"/>
<path d="M262.244 393.366H251.317V404.293H262.244V393.366Z" fill="black"/>
<path d="M295.024 393.366H284.098V404.293H295.024V393.366Z" fill="black"/>
<path d="M305.951 393.366H295.024V404.293H305.951V393.366Z" fill="black"/>
<path d="M316.878 393.366H305.951V404.293H316.878V393.366Z" fill="black"/>
<path d="M327.805 393.366H316.878V404.293H327.805V393.366Z" fill="black"/>
<path d="M349.658 393.366H338.731V404.293H349.658V393.366Z" fill="black"/>
<path d="M393.365 393.366H382.438V404.293H393.365V393.366Z" fill="black"/>
<path d="M415.22 393.366H404.293V404.293H415.22V393.366Z" fill="black"/>
<path d="M426.147 393.366H415.22V404.293H426.147V393.366Z" fill="black"/>
<path d="M131.122 404.293H120.195V415.22H131.122V404.293Z" fill="black"/>
<path d="M142.049 404.293H131.122V415.22H142.049V404.293Z" fill="black"/>
<path d="M152.976 404.293H142.049V415.22H152.976V404.293Z" fill="black"/>
<path d="M163.902 404.293H152.976V415.22H163.902V404.293Z" fill="black"/>
<path d="M174.829 404.293H163.902V415.22H174.829V404.293Z" fill="black"/>
<path d="M196.683 404.293H185.756V415.22H196.683V404.293Z" fill="black"/>
<path d="M240.39 404.293H229.463V415.22H240.39V404.293Z" fill="black"/>
<path d="M262.244 404.293H251.317V415.22H262.244V404.293Z" fill="black"/>
<path d="M316.878 404.293H305.951V415.22H316.878V404.293Z" fill="black"/>
<path d="M338.732 404.293H327.805V415.22H338.732V404.293Z" fill="black"/>
<path d="M349.658 404.293H338.731V415.22H349.658V404.293Z" fill="black"/>
<path d="M360.585 404.293H349.658V415.22H360.585V404.293Z" fill="black"/>
<path d="M382.439 404.293H371.512V415.22H382.439V404.293Z" fill="black"/>
<path d="M426.147 404.293H415.22V415.22H426.147V404.293Z" fill="black"/>
<path d="M120.195 415.22H109.269V426.147H120.195V415.22Z" fill="black"/>
<path d="M131.122 415.22H120.195V426.147H131.122V415.22Z" fill="black"/>
<path d="M142.049 415.22H131.122V426.147H142.049V415.22Z" fill="black"/>
<path d="M196.683 415.22H185.756V426.147H196.683V415.22Z" fill="black"/>
<path d="M207.609 415.22H196.683V426.147H207.609V415.22Z" fill="black"/>
<path d="M218.536 415.22H207.609V426.147H218.536V415.22Z" fill="black"/>
<path d="M229.463 415.22H218.536V426.147H229.463V415.22Z" fill="black"/>
<path d="M251.316 415.22H240.39V426.147H251.316V415.22Z" fill="black"/>
<path d="M273.171 415.22H262.244V426.147H273.171V415.22Z" fill="black"/>
<path d="M295.024 415.22H284.098V426.147H295.024V415.22Z" fill="black"/>
<path d="M305.951 415.22H295.024V426.147H305.951V415.22Z" fill="black"/>
<path d="M316.878 415.22H305.951V426.147H316.878V415.22Z" fill="black"/>
<path d="M327.805 415.22H316.878V426.147H327.805V415.22Z" fill="black"/>
<path d="M349.658 415.22H338.731V426.147H349.658V415.22Z" fill="black"/>
<path d="M360.585 415.22H349.658V426.147H360.585V415.22Z" fill="black"/>
<path d="M382.439 415.22H371.512V426.147H382.439V415.22Z" fill="black"/>
<path d="M393.365 415.22H382.438V426.147H393.365V415.22Z" fill="black"/>
<path d="M404.292 415.22H393.365V426.147H404.292V415.22Z" fill="black"/>
<path d="M415.22 415.22H404.293V426.147H415.22V415.22Z" fill="black"/>
<path d="M426.147 415.22H415.22V426.147H426.147V415.22Z" fill="black"/>
<path d="M86.8682 21.8538H33.3267H21.8535V33.3269V86.8684V98.3416H33.3267H86.8682H98.3413V86.8684V33.3269V21.8538H86.8682ZM86.8682 86.8684H33.3267V33.3269H86.8682V86.8684Z" fill="black"/>
<path d="M414.673 21.8538H361.131H349.658V33.3269V86.8684V98.3416H361.131H414.673H426.146V86.8684V33.3269V21.8538H414.673ZM414.673 86.8684H361.131V33.3269H414.673V86.8684Z" fill="black"/>
<path d="M86.8682 349.659H33.3267H21.8535V361.132V414.673V426.147H33.3267H86.8682H98.3413V414.673V361.132V349.659H86.8682ZM86.8682 414.673H33.3267V361.132H86.8682V414.673Z" fill="black"/>
<path d="M76.4875 43.7075H43.707V76.488H76.4875V43.7075Z" fill="black"/>
<path d="M404.292 43.7075H371.512V76.488H404.292V43.7075Z" fill="black"/>
<path d="M76.4875 371.512H43.707V404.293H76.4875V371.512Z" fill="black"/>
</g>
<defs>
<clipPath id="clip0_317_2033">
<rect width="448" height="448" fill="white"/>
</clipPath>
</defs>
</svg>
